<svg xmlns="http://www.w3.org/2000/svg" xmlns:xlink="http://www.w3.org/1999/xlink" width="1080" zoomAndPan="magnify" viewBox="0 0 810 809.999993" height="1080" preserveAspectRatio="xMidYMid meet" version="1.0"><defs><clipPath id="9cfaa088a1"><path d="M 9.15625 125 L 800.839844 125 L 800.839844 685.238281 L 9.15625 685.238281 Z M 9.15625 125 " clip-rule="nonzero"/></clipPath><clipPath id="266fc9dc1b"><path d="M 603 412 L 749.097656 412 L 749.097656 511 L 603 511 Z M 603 412 " clip-rule="nonzero"/></clipPath><clipPath id="df42bfbac5"><path d="M 343 236.214844 L 545 236.214844 L 545 528 L 343 528 Z M 343 236.214844 " clip-rule="nonzero"/></clipPath><clipPath id="4f0b75d36f"><path d="M 125.847656 302 L 631 302 L 631 573.714844 L 125.847656 573.714844 Z M 125.847656 302 " clip-rule="nonzero"/></clipPath></defs><g clip-path="url(#9cfaa088a1)"><path fill="#65aa92" d="M 82.925781 179.054688 C 49.394531 200.382812 30.734375 229.925781 21.039062 268.675781 C 14.523438 294.714844 12.070312 321.480469 10.535156 348.210938 C 7.820312 395.507812 12.144531 442.5625 17.566406 489.488281 C 24.886719 552.8125 32.226562 617.359375 93.902344 651.789062 C 155.714844 686.289062 237.925781 687.191406 306.796875 685.332031 C 386.902344 683.171875 464.792969 674.707031 544.164062 664.675781 C 606.816406 656.753906 669.820312 646.203125 730.660156 627.585938 C 823.699219 599.121094 819.566406 253.449219 749.59375 176.71875 C 708.160156 131.28125 635.25 131.324219 575.445312 126.988281 C 506.816406 122.019531 438.335938 129.664062 370.042969 135.945312 C 303.195312 142.082031 148.335938 162.554688 82.925781 179.054688 Z M 82.925781 179.054688 " fill-opacity="1" fill-rule="evenodd"/></g><path fill="#55bfda" d="M 621.367188 413.425781 L 603.917969 444.058594 L 712.863281 497.925781 L 705.59375 510.683594 L 748.355469 510.359375 L 730.640625 471.117188 L 721.25 483.207031 Z M 621.367188 413.425781 " fill-opacity="1" fill-rule="nonzero"/><g clip-path="url(#266fc9dc1b)"><path fill="#030135" d="M 747.691406 510.660156 L 730.472656 472.523438 L 721.398438 484.203125 L 621.605469 414.484375 L 604.554688 444.417969 L 603.28125 443.695312 L 621.128906 412.367188 L 721.097656 482.210938 L 730.808594 469.710938 L 749.023438 510.058594 Z M 747.691406 510.660156 " fill-opacity="1" fill-rule="nonzero"/></g><path fill="#ffd7ce" d="M 126.953125 572.644531 L 629.835938 572.644531 L 126.953125 303.4375 Z M 126.953125 572.644531 " fill-opacity="1" fill-rule="nonzero"/><path fill="#c4624b" d="M 448.792969 237.394531 L 642.476562 340.886719 L 543.3125 526.277344 L 344.5 420.046875 Z M 448.792969 237.394531 " fill-opacity="1" fill-rule="nonzero"/><g clip-path="url(#df42bfbac5)"><path fill="#030135" d="M 543.3125 527.257812 C 543.15625 527.257812 542.996094 527.222656 542.851562 527.140625 L 344.039062 420.910156 C 343.804688 420.785156 343.632812 420.570312 343.558594 420.316406 C 343.488281 420.0625 343.519531 419.789062 343.648438 419.558594 L 447.941406 236.910156 C 448.207031 236.4375 448.804688 236.273438 449.277344 236.542969 C 449.746094 236.8125 449.910156 237.410156 449.640625 237.878906 L 345.851562 419.65625 L 543.773438 525.414062 C 544.25 525.671875 544.429688 526.261719 544.175781 526.742188 C 544 527.070312 543.660156 527.257812 543.3125 527.257812 Z M 543.3125 527.257812 " fill-opacity="1" fill-rule="nonzero"/></g><path fill="#fd7b5b" d="M 457.699219 265.910156 L 612.78125 348.777344 L 533.382812 497.214844 L 374.195312 412.15625 Z M 457.699219 265.910156 " fill-opacity="1" fill-rule="nonzero"/><path fill="#c4624b" d="M 626.476562 347.265625 L 613.722656 340.449219 L 501.519531 368.792969 L 467.0625 262.082031 L 455.222656 255.753906 L 447.1875 270.777344 L 479.808594 374.277344 L 371.984375 401.511719 L 364.679688 415.167969 L 381.53125 424.175781 L 486.984375 397.046875 L 518.625 497.429688 L 534.113281 505.703125 L 542.902344 496.9375 L 508.832031 391.429688 L 614.460938 364.257812 Z M 626.476562 347.265625 " fill-opacity="1" fill-rule="nonzero"/><path fill="#030135" d="M 501.519531 369.769531 C 501.082031 369.769531 500.683594 369.476562 500.570312 369.03125 C 500.4375 368.507812 500.757812 367.976562 501.28125 367.84375 L 597.074219 343.644531 C 597.589844 343.515625 598.128906 343.828125 598.261719 344.355469 C 598.394531 344.878906 598.078125 345.410156 597.550781 345.542969 L 501.761719 369.742188 C 501.679688 369.761719 501.601562 369.769531 501.519531 369.769531 Z M 501.519531 369.769531 " fill-opacity="1" fill-rule="nonzero"/><path fill="#030135" d="M 509.703125 470.09375 C 509.285156 470.09375 508.898438 469.828125 508.765625 469.410156 L 486.328125 398.226562 L 401.175781 420.132812 C 400.648438 420.261719 400.121094 419.949219 399.984375 419.425781 C 399.847656 418.902344 400.164062 418.371094 400.6875 418.234375 L 486.742188 396.097656 C 487.246094 395.964844 487.761719 396.257812 487.921875 396.753906 L 510.636719 468.820312 C 510.796875 469.339844 510.511719 469.886719 509.996094 470.050781 C 509.898438 470.082031 509.796875 470.09375 509.703125 470.09375 Z M 509.703125 470.09375 " fill-opacity="1" fill-rule="nonzero"/><path fill="#030135" d="M 479.808594 375.253906 C 479.390625 375.253906 479.007812 374.988281 478.875 374.570312 L 450.625 284.945312 C 450.460938 284.429688 450.75 283.878906 451.265625 283.714844 C 451.78125 283.550781 452.332031 283.839844 452.492188 284.355469 L 480.742188 373.980469 C 480.90625 374.5 480.617188 375.046875 480.101562 375.210938 C 480.003906 375.242188 479.90625 375.253906 479.808594 375.253906 Z M 479.808594 375.253906 " fill-opacity="1" fill-rule="nonzero"/><path fill="#030135" d="M 591.480469 338.375 C 591.324219 338.375 591.164062 338.335938 591.019531 338.257812 L 471.867188 274.589844 C 471.390625 274.335938 471.210938 273.742188 471.464844 273.265625 C 471.71875 272.789062 472.316406 272.609375 472.792969 272.863281 L 591.941406 336.53125 C 592.417969 336.785156 592.597656 337.378906 592.34375 337.855469 C 592.167969 338.1875 591.828125 338.375 591.480469 338.375 Z M 591.480469 338.375 " fill-opacity="1" fill-rule="nonzero"/><g clip-path="url(#4f0b75d36f)"><path fill="#030135" d="M 629.835938 573.621094 C 629.679688 573.621094 629.523438 573.585938 629.375 573.507812 L 126.492188 304.300781 C 126.015625 304.046875 125.835938 303.453125 126.089844 302.976562 C 126.347656 302.5 126.9375 302.320312 127.417969 302.574219 L 630.300781 571.78125 C 630.777344 572.035156 630.957031 572.628906 630.699219 573.105469 C 630.523438 573.433594 630.183594 573.621094 629.835938 573.621094 Z M 629.835938 573.621094 " fill-opacity="1" fill-rule="nonzero"/></g><path fill="#55bfda" d="M 339.359375 394.546875 L 322.410156 425.457031 L 219.402344 360.972656 L 212.339844 373.847656 L 190.199219 337.28125 L 232.921875 331.789062 L 227.546875 346.121094 Z M 339.359375 394.546875 " fill-opacity="1" fill-rule="nonzero"/><path fill="#030135" d="M 323.054688 425.808594 L 321.769531 425.105469 L 338.332031 394.898438 L 226.617188 346.515625 L 231.808594 332.667969 L 190.289062 338.007812 L 190.105469 336.558594 L 234.03125 330.910156 L 228.472656 345.726562 L 340.386719 394.195312 Z M 323.054688 425.808594 " fill-opacity="1" fill-rule="nonzero"/></svg>